<svg class="toyplot-canvas-Canvas" height="1200.0px" id="t11c106894d884886b787f30b2937610a" preserveAspectRatio="xMidYMid meet" style="background-color:transparent;border-color:#292724;border-style:none;border-width:1.0;fill:rgb(16.1%,15.3%,14.1%);fill-opacity:1.0;font-family:Helvetica;font-size:12px;opacity:1.0;stroke:rgb(16.1%,15.3%,14.1%);stroke-opacity:1.0;stroke-width:1.0" viewBox="0 0 450.0 1200.0" width="450.0px" xmlns="http://www.w3.org/2000/svg" xmlns:toyplot="http://www.sandia.gov/toyplot" xmlns:xlink="http://www.w3.org/1999/xlink"><g class="toyplot-coordinates-Cartesian" id="ta1df729134304c2ebe75eb71883beff4"><clipPath id="t74225bccec574a21a42f59f5bd1a391a"><rect height="1140.0" width="390.0" x="30.0" y="30.0" /></clipPath><g clip-path="url(#t74225bccec574a21a42f59f5bd1a391a)"><g class="toytree-mark-Toytree" id="t99e7b51b266e4a01869fa180dd059ce6"><g class="toytree-Edges" style="fill:none;stroke:rgb(14.9%,14.9%,14.9%);stroke-linecap:round;stroke-opacity:1;stroke-width:2"><path d="M 50.0 269.3 L 50.0 109.8 L 201.5 109.8" id="142,141" /><path d="M 50.0 269.3 L 50.0 428.7 L 68.9 428.7" id="142,140" /><path d="M 201.5 109.8 L 201.5 72.1 L 258.3 72.1" id="141,139" /><path d="M 201.5 109.8 L 201.5 147.6 L 220.5 147.6" id="141,138" /><path d="M 68.9 428.7 L 68.9 244.6 L 182.6 244.6" id="140,137" /><path d="M 68.9 428.7 L 68.9 612.8 L 87.9 612.8" id="140,136" /><path d="M 220.5 147.6 L 220.5 117.4 L 239.4 117.4" id="138,135" /><path d="M 220.5 147.6 L 220.5 177.7 L 239.4 177.7" id="138,134" /><path d="M 182.6 244.6 L 182.6 273.9 L 201.5 273.9" id="137,133" /><path d="M 87.9 612.8 L 87.9 406.8 L 144.7 406.8" id="136,132" /><path d="M 87.9 612.8 L 87.9 818.7 L 106.8 818.7" id="136,131" /><path d="M 239.4 117.4 L 239.4 102.3 L 258.3 102.3" id="135,130" /><path d="M 239.4 117.4 L 239.4 132.5 L 258.3 132.5" id="135,129" /><path d="M 239.4 177.7 L 239.4 162.6 L 258.3 162.6" id="134,128" /><path d="M 239.4 177.7 L 239.4 192.8 L 258.3 192.8" id="134,127" /><path d="M 201.5 273.9 L 201.5 241.8 L 239.4 241.8" id="133,126" /><path d="M 201.5 273.9 L 201.5 305.9 L 220.5 305.9" id="133,125" /><path d="M 144.7 406.8 L 144.7 447.3 L 163.6 447.3" id="132,124" /><path d="M 106.8 818.7 L 106.8 710.8 L 163.6 710.8" id="131,123" /><path d="M 106.8 818.7 L 106.8 926.7 L 125.8 926.7" id="131,122" /><path d="M 239.4 241.8 L 239.4 253.1 L 258.3 253.1" id="126,121" /><path d="M 220.5 305.9 L 220.5 283.3 L 258.3 283.3" id="125,120" /><path d="M 220.5 305.9 L 220.5 328.5 L 239.4 328.5" id="125,119" /><path d="M 163.6 447.3 L 163.6 513.3 L 182.6 513.3" id="124,118" /><path d="M 163.6 710.8 L 163.6 679.2 L 239.4 679.2" id="123,117" /><path d="M 163.6 710.8 L 163.6 742.3 L 182.6 742.3" id="123,116" /><path d="M 125.8 926.7 L 125.8 862.0 L 220.5 862.0" id="122,115" /><path d="M 125.8 926.7 L 125.8 991.4 L 144.7 991.4" id="122,114" /><path d="M 239.4 328.5 L 239.4 313.4 L 258.3 313.4" id="119,113" /><path d="M 239.4 328.5 L 239.4 343.6 L 258.3 343.6" id="119,112" /><path d="M 182.6 513.3 L 182.6 445.4 L 201.5 445.4" id="118,111" /><path d="M 182.6 513.3 L 182.6 581.1 L 201.5 581.1" id="118,110" /><path d="M 239.4 679.2 L 239.4 690.5 L 258.3 690.5" id="117,109" /><path d="M 182.6 742.3 L 182.6 771.6 L 201.5 771.6" id="116,108" /><path d="M 220.5 862.0 L 220.5 875.2 L 239.4 875.2" id="115,107" /><path d="M 144.7 991.4 L 144.7 926.8 L 163.6 926.8" id="114,106" /><path d="M 144.7 991.4 L 144.7 1056.0 L 163.6 1056.0" id="114,105" /><path d="M 201.5 445.4 L 201.5 409.6 L 220.5 409.6" id="111,104" /><path d="M 201.5 445.4 L 201.5 481.2 L 220.5 481.2" id="111,103" /><path d="M 201.5 581.1 L 201.5 545.3 L 220.5 545.3" id="110,102" /><path d="M 201.5 581.1 L 201.5 617.0 L 220.5 617.0" id="110,101" /><path d="M 201.5 771.6 L 201.5 741.4 L 220.5 741.4" id="108,100" /><path d="M 201.5 771.6 L 201.5 801.7 L 220.5 801.7" id="108,99" /><path d="M 239.4 875.2 L 239.4 886.6 L 258.3 886.6" id="107,98" /><path d="M 163.6 926.8 L 163.6 944.5 L 182.6 944.5" id="106,97" /><path d="M 163.6 1056.0 L 163.6 1037.4 L 258.3 1037.4" id="105,96" /><path d="M 163.6 1056.0 L 163.6 1074.6 L 182.6 1074.6" id="105,95" /><path d="M 220.5 409.6 L 220.5 422.8 L 239.4 422.8" id="104,94" /><path d="M 220.5 481.2 L 220.5 464.3 L 258.3 464.3" id="103,93" /><path d="M 220.5 481.2 L 220.5 498.2 L 239.4 498.2" id="103,92" /><path d="M 220.5 545.3 L 220.5 558.5 L 239.4 558.5" id="102,91" /><path d="M 220.5 617.0 L 220.5 600.0 L 258.3 600.0" id="101,90" /><path d="M 220.5 617.0 L 220.5 633.9 L 239.4 633.9" id="101,89" /><path d="M 220.5 741.4 L 220.5 754.6 L 239.4 754.6" id="100,88" /><path d="M 220.5 801.7 L 220.5 814.9 L 239.4 814.9" id="99,87" /><path d="M 182.6 944.5 L 182.6 964.8 L 201.5 964.8" id="97,86" /><path d="M 182.6 1074.6 L 182.6 1089.2 L 201.5 1089.2" id="95,85" /><path d="M 239.4 422.8 L 239.4 434.1 L 258.3 434.1" id="94,84" /><path d="M 239.4 498.2 L 239.4 509.5 L 258.3 509.5" id="92,83" /><path d="M 239.4 558.5 L 239.4 569.8 L 258.3 569.8" id="91,82" /><path d="M 239.4 633.9 L 239.4 645.2 L 258.3 645.2" id="89,81" /><path d="M 239.4 754.6 L 239.4 765.9 L 258.3 765.9" id="88,80" /><path d="M 239.4 814.9 L 239.4 826.2 L 258.3 826.2" id="87,79" /><path d="M 201.5 964.8 L 201.5 946.9 L 258.3 946.9" id="86,78" /><path d="M 201.5 964.8 L 201.5 982.7 L 220.5 982.7" id="86,77" /><path d="M 201.5 1089.2 L 201.5 1103.3 L 220.5 1103.3" id="85,76" /><path d="M 220.5 982.7 L 220.5 995.9 L 239.4 995.9" id="77,75" /><path d="M 220.5 1103.3 L 220.5 1116.5 L 239.4 1116.5" id="76,74" /><path d="M 239.4 995.9 L 239.4 1007.2 L 258.3 1007.2" id="75,73" /><path d="M 239.4 1116.5 L 239.4 1127.9 L 258.3 1127.9" id="74,72" /><path d="M 258.3 72.1 L 258.3 64.6 L 277.3 64.6" id="139,71" /><path d="M 258.3 72.1 L 258.3 79.7 L 277.3 79.7" id="139,70" /><path d="M 258.3 102.3 L 258.3 94.8 L 277.3 94.8" id="130,69" /><path d="M 258.3 102.3 L 258.3 109.8 L 277.3 109.8" id="130,68" /><path d="M 258.3 132.5 L 258.3 124.9 L 277.3 124.9" id="129,67" /><path d="M 258.3 132.5 L 258.3 140.0 L 277.3 140.0" id="129,66" /><path d="M 258.3 162.6 L 258.3 155.1 L 277.3 155.1" id="128,65" /><path d="M 258.3 162.6 L 258.3 170.2 L 277.3 170.2" id="128,64" /><path d="M 258.3 192.8 L 258.3 185.3 L 277.3 185.3" id="127,63" /><path d="M 258.3 192.8 L 258.3 200.3 L 277.3 200.3" id="127,62" /><path d="M 182.6 244.6 L 182.6 215.4 L 277.3 215.4" id="137,61" /><path d="M 239.4 241.8 L 239.4 230.5 L 277.3 230.5" id="126,60" /><path d="M 258.3 253.1 L 258.3 245.6 L 277.3 245.6" id="121,59" /><path d="M 258.3 253.1 L 258.3 260.7 L 277.3 260.7" id="121,58" /><path d="M 258.3 283.3 L 258.3 275.7 L 277.3 275.7" id="120,57" /><path d="M 258.3 283.3 L 258.3 290.8 L 277.3 290.8" id="120,56" /><path d="M 258.3 313.4 L 258.3 305.9 L 277.3 305.9" id="113,55" /><path d="M 258.3 313.4 L 258.3 321.0 L 277.3 321.0" id="113,54" /><path d="M 258.3 343.6 L 258.3 336.1 L 277.3 336.1" id="112,53" /><path d="M 258.3 343.6 L 258.3 351.2 L 277.3 351.2" id="112,52" /><path d="M 144.7 406.8 L 144.7 366.2 L 277.3 366.2" id="132,51" /><path d="M 163.6 447.3 L 163.6 381.3 L 277.3 381.3" id="124,50" /><path d="M 220.5 409.6 L 220.5 396.4 L 277.3 396.4" id="104,49" /><path d="M 239.4 422.8 L 239.4 411.5 L 277.3 411.5" id="94,48" /><path d="M 258.3 434.1 L 258.3 426.6 L 277.3 426.6" id="84,47" /><path d="M 258.3 434.1 L 258.3 441.6 L 277.3 441.6" id="84,46" /><path d="M 258.3 464.3 L 258.3 456.7 L 277.3 456.7" id="93,45" /><path d="M 258.3 464.3 L 258.3 471.8 L 277.3 471.8" id="93,44" /><path d="M 239.4 498.2 L 239.4 486.9 L 277.3 486.9" id="92,43" /><path d="M 258.3 509.5 L 258.3 502.0 L 277.3 502.0" id="83,42" /><path d="M 258.3 509.5 L 258.3 517.1 L 277.3 517.1" id="83,41" /><path d="M 220.5 545.3 L 220.5 532.1 L 277.3 532.1" id="102,40" /><path d="M 239.4 558.5 L 239.4 547.2 L 277.3 547.2" id="91,39" /><path d="M 258.3 569.8 L 258.3 562.3 L 277.3 562.3" id="82,38" /><path d="M 258.3 569.8 L 258.3 577.4 L 277.3 577.4" id="82,37" /><path d="M 258.3 600.0 L 258.3 592.5 L 277.3 592.5" id="90,36" /><path d="M 258.3 600.0 L 258.3 607.5 L 277.3 607.5" id="90,35" /><path d="M 239.4 633.9 L 239.4 622.6 L 277.3 622.6" id="89,34" /><path d="M 258.3 645.2 L 258.3 637.7 L 277.3 637.7" id="81,33" /><path d="M 258.3 645.2 L 258.3 652.8 L 277.3 652.8" id="81,32" /><path d="M 239.4 679.2 L 239.4 667.9 L 277.3 667.9" id="117,31" /><path d="M 258.3 690.5 L 258.3 682.9 L 277.3 682.9" id="109,30" /><path d="M 258.3 690.5 L 258.3 698.0 L 277.3 698.0" id="109,29" /><path d="M 182.6 742.3 L 182.6 713.1 L 277.3 713.1" id="116,28" /><path d="M 220.5 741.4 L 220.5 728.2 L 277.3 728.2" id="100,27" /><path d="M 239.4 754.6 L 239.4 743.3 L 277.3 743.3" id="88,26" /><path d="M 258.3 765.9 L 258.3 758.4 L 277.3 758.4" id="80,25" /><path d="M 258.3 765.9 L 258.3 773.4 L 277.3 773.4" id="80,24" /><path d="M 220.5 801.7 L 220.5 788.5 L 277.3 788.5" id="99,23" /><path d="M 239.4 814.9 L 239.4 803.6 L 277.3 803.6" id="87,22" /><path d="M 258.3 826.2 L 258.3 818.7 L 277.3 818.7" id="79,21" /><path d="M 258.3 826.2 L 258.3 833.8 L 277.3 833.8" id="79,20" /><path d="M 220.5 862.0 L 220.5 848.8 L 277.3 848.8" id="115,19" /><path d="M 239.4 875.2 L 239.4 863.9 L 277.3 863.9" id="107,18" /><path d="M 258.3 886.6 L 258.3 879.0 L 277.3 879.0" id="98,17" /><path d="M 258.3 886.6 L 258.3 894.1 L 277.3 894.1" id="98,16" /><path d="M 163.6 926.8 L 163.6 909.2 L 277.3 909.2" id="106,15" /><path d="M 182.6 944.5 L 182.6 924.3 L 277.3 924.3" id="97,14" /><path d="M 258.3 946.9 L 258.3 939.3 L 277.3 939.3" id="78,13" /><path d="M 258.3 946.9 L 258.3 954.4 L 277.3 954.4" id="78,12" /><path d="M 220.5 982.7 L 220.5 969.5 L 277.3 969.5" id="77,11" /><path d="M 239.4 995.9 L 239.4 984.6 L 277.3 984.6" id="75,10" /><path d="M 258.3 1007.2 L 258.3 999.7 L 277.3 999.7" id="73,9" /><path d="M 258.3 1007.2 L 258.3 1014.7 L 277.3 1014.7" id="73,8" /><path d="M 258.3 1037.4 L 258.3 1029.8 L 277.3 1029.8" id="96,7" /><path d="M 258.3 1037.4 L 258.3 1044.9 L 277.3 1044.9" id="96,6" /><path d="M 182.6 1074.6 L 182.6 1060.0 L 277.3 1060.0" id="95,5" /><path d="M 201.5 1089.2 L 201.5 1075.1 L 277.3 1075.1" id="85,4" /><path d="M 220.5 1103.3 L 220.5 1090.2 L 277.3 1090.2" id="76,3" /><path d="M 239.4 1116.5 L 239.4 1105.2 L 277.3 1105.2" id="74,2" /><path d="M 258.3 1127.9 L 258.3 1120.3 L 277.3 1120.3" id="72,1" /><path d="M 258.3 1127.9 L 258.3 1135.4 L 277.3 1135.4" id="72,0" /></g><g class="toytree-Nodes" style="fill:rgb(100%,100%,100%);fill-opacity:1.0;stroke:rgb(0%,0%,0%);stroke-opacity:1.0;stroke-width:1"><g id="node-0" transform="translate(277.283,1135.398)"><circle r="0.0" /></g><g id="node-1" transform="translate(277.283,1120.317)"><circle r="0.0" /></g><g id="node-2" transform="translate(277.283,1105.235)"><circle r="0.0" /></g><g id="node-3" transform="translate(277.283,1090.153)"><circle r="0.0" /></g><g id="node-4" transform="translate(277.283,1075.072)"><circle r="0.0" /></g><g id="node-5" transform="translate(277.283,1059.990)"><circle r="0.0" /></g><g id="node-6" transform="translate(277.283,1044.908)"><circle r="0.0" /></g><g id="node-7" transform="translate(277.283,1029.827)"><circle r="0.0" /></g><g id="node-8" transform="translate(277.283,1014.745)"><circle r="0.0" /></g><g id="node-9" transform="translate(277.283,999.663)"><circle r="0.0" /></g><g id="node-10" transform="translate(277.283,984.582)"><circle r="0.0" /></g><g id="node-11" transform="translate(277.283,969.500)"><circle r="0.0" /></g><g id="node-12" transform="translate(277.283,954.419)"><circle r="0.0" /></g><g id="node-13" transform="translate(277.283,939.337)"><circle r="0.0" /></g><g id="node-14" transform="translate(277.283,924.255)"><circle r="0.0" /></g><g id="node-15" transform="translate(277.283,909.174)"><circle r="0.0" /></g><g id="node-16" transform="translate(277.283,894.092)"><circle r="0.0" /></g><g id="node-17" transform="translate(277.283,879.010)"><circle r="0.0" /></g><g id="node-18" transform="translate(277.283,863.929)"><circle r="0.0" /></g><g id="node-19" transform="translate(277.283,848.847)"><circle r="0.0" /></g><g id="node-20" transform="translate(277.283,833.765)"><circle r="0.0" /></g><g id="node-21" transform="translate(277.283,818.684)"><circle r="0.0" /></g><g id="node-22" transform="translate(277.283,803.602)"><circle r="0.0" /></g><g id="node-23" transform="translate(277.283,788.521)"><circle r="0.0" /></g><g id="node-24" transform="translate(277.283,773.439)"><circle r="0.0" /></g><g id="node-25" transform="translate(277.283,758.357)"><circle r="0.0" /></g><g id="node-26" transform="translate(277.283,743.276)"><circle r="0.0" /></g><g id="node-27" transform="translate(277.283,728.194)"><circle r="0.0" /></g><g id="node-28" transform="translate(277.283,713.112)"><circle r="0.0" /></g><g id="node-29" transform="translate(277.283,698.031)"><circle r="0.0" /></g><g id="node-30" transform="translate(277.283,682.949)"><circle r="0.0" /></g><g id="node-31" transform="translate(277.283,667.867)"><circle r="0.0" /></g><g id="node-32" transform="translate(277.283,652.786)"><circle r="0.0" /></g><g id="node-33" transform="translate(277.283,637.704)"><circle r="0.0" /></g><g id="node-34" transform="translate(277.283,622.622)"><circle r="0.0" /></g><g id="node-35" transform="translate(277.283,607.541)"><circle r="0.0" /></g><g id="node-36" transform="translate(277.283,592.459)"><circle r="0.0" /></g><g id="node-37" transform="translate(277.283,577.378)"><circle r="0.0" /></g><g id="node-38" transform="translate(277.283,562.296)"><circle r="0.0" /></g><g id="node-39" transform="translate(277.283,547.214)"><circle r="0.0" /></g><g id="node-40" transform="translate(277.283,532.133)"><circle r="0.0" /></g><g id="node-41" transform="translate(277.283,517.051)"><circle r="0.0" /></g><g id="node-42" transform="translate(277.283,501.969)"><circle r="0.0" /></g><g id="node-43" transform="translate(277.283,486.888)"><circle r="0.0" /></g><g id="node-44" transform="translate(277.283,471.806)"><circle r="0.0" /></g><g id="node-45" transform="translate(277.283,456.724)"><circle r="0.0" /></g><g id="node-46" transform="translate(277.283,441.643)"><circle r="0.0" /></g><g id="node-47" transform="translate(277.283,426.561)"><circle r="0.0" /></g><g id="node-48" transform="translate(277.283,411.479)"><circle r="0.0" /></g><g id="node-49" transform="translate(277.283,396.398)"><circle r="0.0" /></g><g id="node-50" transform="translate(277.283,381.316)"><circle r="0.0" /></g><g id="node-51" transform="translate(277.283,366.235)"><circle r="0.0" /></g><g id="node-52" transform="translate(277.283,351.153)"><circle r="0.0" /></g><g id="node-53" transform="translate(277.283,336.071)"><circle r="0.0" /></g><g id="node-54" transform="translate(277.283,320.990)"><circle r="0.0" /></g><g id="node-55" transform="translate(277.283,305.908)"><circle r="0.0" /></g><g id="node-56" transform="translate(277.283,290.826)"><circle r="0.0" /></g><g id="node-57" transform="translate(277.283,275.745)"><circle r="0.0" /></g><g id="node-58" transform="translate(277.283,260.663)"><circle r="0.0" /></g><g id="node-59" transform="translate(277.283,245.581)"><circle r="0.0" /></g><g id="node-60" transform="translate(277.283,230.500)"><circle r="0.0" /></g><g id="node-61" transform="translate(277.283,215.418)"><circle r="0.0" /></g><g id="node-62" transform="translate(277.283,200.337)"><circle r="0.0" /></g><g id="node-63" transform="translate(277.283,185.255)"><circle r="0.0" /></g><g id="node-64" transform="translate(277.283,170.173)"><circle r="0.0" /></g><g id="node-65" transform="translate(277.283,155.092)"><circle r="0.0" /></g><g id="node-66" transform="translate(277.283,140.010)"><circle r="0.0" /></g><g id="node-67" transform="translate(277.283,124.928)"><circle r="0.0" /></g><g id="node-68" transform="translate(277.283,109.847)"><circle r="0.0" /></g><g id="node-69" transform="translate(277.283,94.765)"><circle r="0.0" /></g><g id="node-70" transform="translate(277.283,79.683)"><circle r="0.0" /></g><g id="node-71" transform="translate(277.283,64.602)"><circle r="0.0" /></g><g id="node-72" transform="translate(258.343,1127.857)"><circle r="10.0" /></g><g id="node-73" transform="translate(258.343,1007.204)"><circle r="10.0" /></g><g id="node-74" transform="translate(239.403,1116.546)"><circle r="10.0" /></g><g id="node-75" transform="translate(239.403,995.893)"><circle r="10.0" /></g><g id="node-76" transform="translate(220.462,1103.350)"><circle r="10.0" /></g><g id="node-77" transform="translate(220.462,982.697)"><circle r="10.0" /></g><g id="node-78" transform="translate(258.343,946.878)"><circle r="10.0" /></g><g id="node-79" transform="translate(258.343,826.225)"><circle r="10.0" /></g><g id="node-80" transform="translate(258.343,765.898)"><circle r="10.0" /></g><g id="node-81" transform="translate(258.343,645.245)"><circle r="10.0" /></g><g id="node-82" transform="translate(258.343,569.837)"><circle r="10.0" /></g><g id="node-83" transform="translate(258.343,509.510)"><circle r="10.0" /></g><g id="node-84" transform="translate(258.343,434.102)"><circle r="10.0" /></g><g id="node-85" transform="translate(201.522,1089.211)"><circle r="10.0" /></g><g id="node-86" transform="translate(201.522,964.787)"><circle r="10.0" /></g><g id="node-87" transform="translate(239.403,814.913)"><circle r="10.0" /></g><g id="node-88" transform="translate(239.403,754.587)"><circle r="10.0" /></g><g id="node-89" transform="translate(239.403,633.934)"><circle r="10.0" /></g><g id="node-90" transform="translate(258.343,600.000)"><circle r="10.0" /></g><g id="node-91" transform="translate(239.403,558.525)"><circle r="10.0" /></g><g id="node-92" transform="translate(239.403,498.199)"><circle r="10.0" /></g><g id="node-93" transform="translate(258.343,464.265)"><circle r="10.0" /></g><g id="node-94" transform="translate(239.403,422.791)"><circle r="10.0" /></g><g id="node-95" transform="translate(182.582,1074.600)"><circle r="10.0" /></g><g id="node-96" transform="translate(258.343,1037.368)"><circle r="10.0" /></g><g id="node-97" transform="translate(182.582,944.521)"><circle r="10.0" /></g><g id="node-98" transform="translate(258.343,886.551)"><circle r="10.0" /></g><g id="node-99" transform="translate(220.462,801.717)"><circle r="10.0" /></g><g id="node-100" transform="translate(220.462,741.390)"><circle r="10.0" /></g><g id="node-101" transform="translate(220.462,616.967)"><circle r="10.0" /></g><g id="node-102" transform="translate(220.462,545.329)"><circle r="10.0" /></g><g id="node-103" transform="translate(220.462,481.232)"><circle r="10.0" /></g><g id="node-104" transform="translate(220.462,409.594)"><circle r="10.0" /></g><g id="node-105" transform="translate(163.642,1055.984)"><circle r="10.0" /></g><g id="node-106" transform="translate(163.642,926.847)"><circle r="10.0" /></g><g id="node-107" transform="translate(239.403,875.240)"><circle r="10.0" /></g><g id="node-108" transform="translate(201.522,771.554)"><circle r="10.0" /></g><g id="node-109" transform="translate(258.343,690.490)"><circle r="10.0" /></g><g id="node-110" transform="translate(201.522,581.148)"><circle r="10.0" /></g><g id="node-111" transform="translate(201.522,445.413)"><circle r="10.0" /></g><g id="node-112" transform="translate(258.343,343.612)"><circle r="10.0" /></g><g id="node-113" transform="translate(258.343,313.449)"><circle r="10.0" /></g><g id="node-114" transform="translate(144.701,991.416)"><circle r="10.0" /></g><g id="node-115" transform="translate(220.462,862.043)"><circle r="10.0" /></g><g id="node-116" transform="translate(182.582,742.333)"><circle r="10.0" /></g><g id="node-117" transform="translate(239.403,679.179)"><circle r="10.0" /></g><g id="node-118" transform="translate(182.582,513.281)"><circle r="10.0" /></g><g id="node-119" transform="translate(239.403,328.530)"><circle r="10.0" /></g><g id="node-120" transform="translate(258.343,283.286)"><circle r="10.0" /></g><g id="node-121" transform="translate(258.343,253.122)"><circle r="10.0" /></g><g id="node-122" transform="translate(125.761,926.730)"><circle r="10.0" /></g><g id="node-123" transform="translate(163.642,710.756)"><circle r="10.0" /></g><g id="node-124" transform="translate(163.642,447.298)"><circle r="10.0" /></g><g id="node-125" transform="translate(220.462,305.908)"><circle r="10.0" /></g><g id="node-126" transform="translate(239.403,241.811)"><circle r="10.0" /></g><g id="node-127" transform="translate(258.343,192.796)"><circle r="10.0" /></g><g id="node-128" transform="translate(258.343,162.632)"><circle r="10.0" /></g><g id="node-129" transform="translate(258.343,132.469)"><circle r="10.0" /></g><g id="node-130" transform="translate(258.343,102.306)"><circle r="10.0" /></g><g id="node-131" transform="translate(106.821,818.743)"><circle r="10.0" /></g><g id="node-132" transform="translate(144.701,406.766)"><circle r="10.0" /></g><g id="node-133" transform="translate(201.522,273.860)"><circle r="10.0" /></g><g id="node-134" transform="translate(239.403,177.714)"><circle r="10.0" /></g><g id="node-135" transform="translate(239.403,117.388)"><circle r="10.0" /></g><g id="node-136" transform="translate(87.881,612.755)"><circle r="10.0" /></g><g id="node-137" transform="translate(182.582,244.639)"><circle r="10.0" /></g><g id="node-138" transform="translate(220.462,147.551)"><circle r="10.0" /></g><g id="node-139" transform="translate(258.343,72.143)"><circle r="10.0" /></g><g id="node-140" transform="translate(68.940,428.697)"><circle r="10.0" /></g><g id="node-141" transform="translate(201.522,109.847)"><circle r="10.0" /></g><g id="node-142" transform="translate(50.000,269.272)"><circle r="0.0" /></g></g><g class="toytree-NodeLabels" style="fill:rgb(14.9%,14.9%,14.9%);fill-opacity:1.0;font-size:10px;stroke:none"><g transform="translate(252.78,1130.41)"><text>21</text></g><g transform="translate(252.78,1009.76)"><text>12</text></g><g transform="translate(236.62,1119.10)"><text>8</text></g><g transform="translate(236.62,998.45)"><text>5</text></g><g transform="translate(217.68,1105.90)"><text>2</text></g><g transform="translate(217.68,985.25)"><text>8</text></g><g transform="translate(252.78,949.43)"><text>13</text></g><g transform="translate(255.56,828.78)"><text>1</text></g><g transform="translate(252.78,768.45)"><text>10</text></g><g transform="translate(252.78,647.80)"><text>15</text></g><g transform="translate(252.78,572.39)"><text>60</text></g><g transform="translate(252.78,512.07)"><text>14</text></g><g transform="translate(252.78,436.66)"><text>16</text></g><g transform="translate(198.74,1091.77)"><text>4</text></g><g transform="translate(198.74,967.34)"><text>0</text></g><g transform="translate(236.62,817.47)"><text>1</text></g><g transform="translate(236.62,757.14)"><text>1</text></g><g transform="translate(233.84,636.49)"><text>11</text></g><g transform="translate(252.78,602.55)"><text>36</text></g><g transform="translate(236.62,561.08)"><text>0</text></g><g transform="translate(236.62,500.75)"><text>0</text></g><g transform="translate(255.56,466.82)"><text>8</text></g><g transform="translate(236.62,425.35)"><text>4</text></g><g transform="translate(179.80,1077.16)"><text>0</text></g><g transform="translate(255.56,1039.92)"><text>0</text></g><g transform="translate(179.80,947.08)"><text>0</text></g><g transform="translate(252.78,889.11)"><text>19</text></g><g transform="translate(217.68,804.27)"><text>0</text></g><g transform="translate(217.68,743.95)"><text>0</text></g><g transform="translate(217.68,619.52)"><text>0</text></g><g transform="translate(217.68,547.88)"><text>0</text></g><g transform="translate(217.68,483.79)"><text>0</text></g><g transform="translate(217.68,412.15)"><text>4</text></g><g transform="translate(160.86,1058.54)"><text>0</text></g><g transform="translate(160.86,929.40)"><text>0</text></g><g transform="translate(233.84,877.79)"><text>15</text></g><g transform="translate(198.74,774.11)"><text>0</text></g><g transform="translate(255.56,693.04)"><text>0</text></g><g transform="translate(198.74,583.70)"><text>0</text></g><g transform="translate(198.74,447.97)"><text>0</text></g><g transform="translate(250.00,346.17)"><text>100</text></g><g transform="translate(250.00,316.00)"><text>100</text></g><g transform="translate(141.92,993.97)"><text>0</text></g><g transform="translate(217.68,864.60)"><text>0</text></g><g transform="translate(179.80,744.89)"><text>0</text></g><g transform="translate(236.62,681.73)"><text>0</text></g><g transform="translate(179.80,515.84)"><text>0</text></g><g transform="translate(231.06,331.09)"><text>100</text></g><g transform="translate(250.00,285.84)"><text>100</text></g><g transform="translate(255.56,255.68)"><text>0</text></g><g transform="translate(122.98,929.28)"><text>0</text></g><g transform="translate(160.86,713.31)"><text>0</text></g><g transform="translate(160.86,449.85)"><text>0</text></g><g transform="translate(214.90,308.46)"><text>98</text></g><g transform="translate(236.62,244.37)"><text>1</text></g><g transform="translate(250.00,195.35)"><text>100</text></g><g transform="translate(250.00,165.19)"><text>100</text></g><g transform="translate(250.00,135.02)"><text>100</text></g><g transform="translate(250.00,104.86)"><text>100</text></g><g transform="translate(104.04,821.30)"><text>0</text></g><g transform="translate(141.92,409.32)"><text>0</text></g><g transform="translate(198.74,276.41)"><text>0</text></g><g transform="translate(233.84,180.27)"><text>70</text></g><g transform="translate(231.06,119.94)"><text>100</text></g><g transform="translate(85.10,615.31)"><text>0</text></g><g transform="translate(179.80,247.19)"><text>0</text></g><g transform="translate(212.12,150.11)"><text>100</text></g><g transform="translate(250.00,74.70)"><text>100</text></g><g transform="translate(66.16,431.25)"><text>7</text></g><g transform="translate(193.18,112.40)"><text>100</text></g></g><g class="toytree-TipLabels" style="fill:rgb(14.9%,14.9%,14.9%);fill-opacity:1.0;font-family:helvetica;font-size:15px;font-weight:normal;stroke:none;white-space:pre"><g transform="translate(277.28,1135.40)rotate(0)"><text style="" x="15.00" y="3.83">pollen</text></g><g transform="translate(277.28,1120.32)rotate(0)"><text style="" x="15.00" y="3.83">pollen</text></g><g transform="translate(277.28,1105.23)rotate(0)"><text style="" x="15.00" y="3.83">pollen</text></g><g transform="translate(277.28,1090.15)rotate(0)"><text style="" x="15.00" y="3.83">pollen</text></g><g transform="translate(277.28,1075.07)rotate(0)"><text style="" x="15.00" y="3.83">pollen</text></g><g transform="translate(277.28,1059.99)rotate(0)"><text style="" x="15.00" y="3.83">pollen</text></g><g transform="translate(277.28,1044.91)rotate(0)"><text style="" x="15.00" y="3.83">pollen</text></g><g transform="translate(277.28,1029.83)rotate(0)"><text style="" x="15.00" y="3.83">pollen</text></g><g transform="translate(277.28,1014.75)rotate(0)"><text style="" x="15.00" y="3.83">pollen</text></g><g transform="translate(277.28,999.66)rotate(0)"><text style="" x="15.00" y="3.83">pollen</text></g><g transform="translate(277.28,984.58)rotate(0)"><text style="" x="15.00" y="3.83">pollen</text></g><g transform="translate(277.28,969.50)rotate(0)"><text style="" x="15.00" y="3.83">pollen</text></g><g transform="translate(277.28,954.42)rotate(0)"><text style="" x="15.00" y="3.83">pollen</text></g><g transform="translate(277.28,939.34)rotate(0)"><text style="" x="15.00" y="3.83">pollen</text></g><g transform="translate(277.28,924.26)rotate(0)"><text style="" x="15.00" y="3.83">pollen</text></g><g transform="translate(277.28,909.17)rotate(0)"><text style="" x="15.00" y="3.83">pollen</text></g><g transform="translate(277.28,894.09)rotate(0)"><text style="" x="15.00" y="3.83">pollen</text></g><g transform="translate(277.28,879.01)rotate(0)"><text style="" x="15.00" y="3.83">pollen</text></g><g transform="translate(277.28,863.93)rotate(0)"><text style="" x="15.00" y="3.83">pollen</text></g><g transform="translate(277.28,848.85)rotate(0)"><text style="" x="15.00" y="3.83">pollen</text></g><g transform="translate(277.28,833.77)rotate(0)"><text style="" x="15.00" y="3.83">pollen</text></g><g transform="translate(277.28,818.68)rotate(0)"><text style="" x="15.00" y="3.83">pollen</text></g><g transform="translate(277.28,803.60)rotate(0)"><text style="" x="15.00" y="3.83">pollen</text></g><g transform="translate(277.28,788.52)rotate(0)"><text style="" x="15.00" y="3.83">pollen</text></g><g transform="translate(277.28,773.44)rotate(0)"><text style="" x="15.00" y="3.83">pollen</text></g><g transform="translate(277.28,758.36)rotate(0)"><text style="" x="15.00" y="3.83">pollen</text></g><g transform="translate(277.28,743.28)rotate(0)"><text style="" x="15.00" y="3.83">pollen</text></g><g transform="translate(277.28,728.19)rotate(0)"><text style="" x="15.00" y="3.83">pollen</text></g><g transform="translate(277.28,713.11)rotate(0)"><text style="" x="15.00" y="3.83">pollen</text></g><g transform="translate(277.28,698.03)rotate(0)"><text style="" x="15.00" y="3.83">pollen</text></g><g transform="translate(277.28,682.95)rotate(0)"><text style="" x="15.00" y="3.83">pollen</text></g><g transform="translate(277.28,667.87)rotate(0)"><text style="" x="15.00" y="3.83">pollen</text></g><g transform="translate(277.28,652.79)rotate(0)"><text style="" x="15.00" y="3.83">pollen</text></g><g transform="translate(277.28,637.70)rotate(0)"><text style="" x="15.00" y="3.83">pollen</text></g><g transform="translate(277.28,622.62)rotate(0)"><text style="" x="15.00" y="3.83">pollen</text></g><g transform="translate(277.28,607.54)rotate(0)"><text style="" x="15.00" y="3.83">pollen</text></g><g transform="translate(277.28,592.46)rotate(0)"><text style="" x="15.00" y="3.83">pollen</text></g><g transform="translate(277.28,577.38)rotate(0)"><text style="" x="15.00" y="3.83">pollen</text></g><g transform="translate(277.28,562.30)rotate(0)"><text style="" x="15.00" y="3.83">pollen</text></g><g transform="translate(277.28,547.21)rotate(0)"><text style="" x="15.00" y="3.83">pollen</text></g><g transform="translate(277.28,532.13)rotate(0)"><text style="" x="15.00" y="3.83">pollen</text></g><g transform="translate(277.28,517.05)rotate(0)"><text style="" x="15.00" y="3.83">pollen</text></g><g transform="translate(277.28,501.97)rotate(0)"><text style="" x="15.00" y="3.83">pollen</text></g><g transform="translate(277.28,486.89)rotate(0)"><text style="" x="15.00" y="3.83">pollen</text></g><g transform="translate(277.28,471.81)rotate(0)"><text style="" x="15.00" y="3.83">pollen</text></g><g transform="translate(277.28,456.72)rotate(0)"><text style="" x="15.00" y="3.83">pollen</text></g><g transform="translate(277.28,441.64)rotate(0)"><text style="" x="15.00" y="3.83">pollen</text></g><g transform="translate(277.28,426.56)rotate(0)"><text style="" x="15.00" y="3.83">pollen</text></g><g transform="translate(277.28,411.48)rotate(0)"><text style="" x="15.00" y="3.83">pollen</text></g><g transform="translate(277.28,396.40)rotate(0)"><text style="" x="15.00" y="3.83">pollen</text></g><g transform="translate(277.28,381.32)rotate(0)"><text style="" x="15.00" y="3.83">pollen</text></g><g transform="translate(277.28,366.23)rotate(0)"><text style="" x="15.00" y="3.83">pollen</text></g><g transform="translate(277.28,351.15)rotate(0)"><text style="" x="15.00" y="3.83">tuberculatus</text></g><g transform="translate(277.28,336.07)rotate(0)"><text style="" x="15.00" y="3.83">tuberculatus</text></g><g transform="translate(277.28,320.99)rotate(0)"><text style="" x="15.00" y="3.83">tuberculatus</text></g><g transform="translate(277.28,305.91)rotate(0)"><text style="" x="15.00" y="3.83">tuberculatus</text></g><g transform="translate(277.28,290.83)rotate(0)"><text style="" x="15.00" y="3.83">tricolor</text></g><g transform="translate(277.28,275.74)rotate(0)"><text style="" x="15.00" y="3.83">tricolor</text></g><g transform="translate(277.28,260.66)rotate(0)"><text style="" x="15.00" y="3.83">pollen</text></g><g transform="translate(277.28,245.58)rotate(0)"><text style="" x="15.00" y="3.83">pollen</text></g><g transform="translate(277.28,230.50)rotate(0)"><text style="" x="15.00" y="3.83">pollen</text></g><g transform="translate(277.28,215.42)rotate(0)"><text style="" x="15.00" y="3.83">pollen</text></g><g transform="translate(277.28,200.34)rotate(0)"><text style="" x="15.00" y="3.83">palmeri</text></g><g transform="translate(277.28,185.25)rotate(0)"><text style="" x="15.00" y="3.83">palmeri</text></g><g transform="translate(277.28,170.17)rotate(0)"><text style="" x="15.00" y="3.83">cruentus</text></g><g transform="translate(277.28,155.09)rotate(0)"><text style="" x="15.00" y="3.83">cruentus</text></g><g transform="translate(277.28,140.01)rotate(0)"><text style="" x="15.00" y="3.83">cruentus</text></g><g transform="translate(277.28,124.93)rotate(0)"><text style="" x="15.00" y="3.83">cruentus</text></g><g transform="translate(277.28,109.85)rotate(0)"><text style="" x="15.00" y="3.83">hypochondriacus</text></g><g transform="translate(277.28,94.77)rotate(0)"><text style="" x="15.00" y="3.83">hypochondriacus</text></g><g transform="translate(277.28,79.68)rotate(0)"><text style="" x="15.00" y="3.83">caudatus</text></g><g transform="translate(277.28,64.60)rotate(0)"><text style="" x="15.00" y="3.83">caudatus</text></g></g></g></g></g></svg>